HIERARCHY
ROOT Hips
{
 OFFSET 0.000000 0.000000 0.000000
 CHANNELS 6 Xposition Yposition Zposition Yrotation Xrotation Zrotation
 JOINT Chest
 {
  OFFSET 0.000000 9.303000 0.001900
  CHANNELS 3 Yrotation Xrotation Zrotation
  JOINT Chest2
  {
   OFFSET 0.000000 9.301100 -0.003900
   CHANNELS 3 Yrotation Xrotation Zrotation
   JOINT Chest3
   {
    OFFSET 0.000000 9.262800 0.000000
    CHANNELS 3 Yrotation Xrotation Zrotation
    JOINT Chest4
    {
     OFFSET 0.000000 9.253300 0.000000
     CHANNELS 3 Yrotation Xrotation Zrotation
     JOINT Neck
     {
      OFFSET 0.000000 14.010300 0.000000
      CHANNELS 3 Yrotation Xrotation Zrotation
      JOINT Head
      {
       OFFSET 0.000000 8.657600 -0.008300
       CHANNELS 3 Yrotation Xrotation Zrotation
       End Site
       {
        OFFSET 0.000000 16.540200 -0.004400
       }
      }
     }
     JOINT RightCollar
     {
      OFFSET -2.834100 9.267700 0.000000
      CHANNELS 3 Yrotation Xrotation Zrotation
      JOINT RightShoulder
      {
       OFFSET -13.135200 0.000000 0.000000
       CHANNELS 3 Yrotation Xrotation Zrotation
       JOINT RightElbow
       {
        OFFSET 0.000000 -28.893500 0.000000
        CHANNELS 3 Yrotation Xrotation Zrotation
        JOINT RightWrist
        {
         OFFSET 0.000000 -23.344000 0.000000
         CHANNELS 3 Yrotation Xrotation Zrotation
         End Site
         {
          OFFSET 0.000000 -17.223000 0.000000
         }
        }
       }
      }
     }
     JOINT LeftCollar
     {
      OFFSET 2.834100 9.267700 0.000000
      CHANNELS 3 Yrotation Xrotation Zrotation
      JOINT LeftShoulder
      {
       OFFSET 13.135200 0.000000 0.000000
       CHANNELS 3 Yrotation Xrotation Zrotation
       JOINT LeftElbow
       {
        OFFSET 0.000000 -28.893500 0.000000
        CHANNELS 3 Yrotation Xrotation Zrotation
        JOINT LeftWrist
        {
         OFFSET 0.000000 -23.344000 0.000000
         CHANNELS 3 Yrotation Xrotation Zrotation
         End Site
         {
          OFFSET 0.000000 -17.223000 0.000000
         }
        }
       }
      }
     }
    }
   }
  }
 }
 JOINT RightHip
 {
  OFFSET -7.547200 -0.009500 -0.001000
  CHANNELS 3 Yrotation Xrotation Zrotation
  JOINT RightKnee
  {
   OFFSET 0.000000 -39.762800 0.000900
   CHANNELS 3 Yrotation Xrotation Zrotation
   JOINT RightAnkle
   {
    OFFSET 0.000000 -38.588200 0.001600
    CHANNELS 3 Yrotation Xrotation Zrotation
    JOINT RightToe
    {
     OFFSET 0.000000 -4.693300 10.419700
     CHANNELS 3 Yrotation Xrotation Zrotation
     End Site
     {
      OFFSET 0.000000 -1.379900 5.669300
     }
    }
   }
  }
 }
 JOINT LeftHip
 {
  OFFSET 7.547200 -0.009500 -0.001000
  CHANNELS 3 Yrotation Xrotation Zrotation
  JOINT LeftKnee
  {
   OFFSET 0.000000 -39.762800 0.000900
   CHANNELS 3 Yrotation Xrotation Zrotation
   JOINT LeftAnkle
   {
    OFFSET 0.000000 -38.588200 0.001600
    CHANNELS 3 Yrotation Xrotation Zrotation
    JOINT LeftToe
    {
     OFFSET 0.000000 -4.693300 10.419700
     CHANNELS 3 Yrotation Xrotation Zrotation
     End Site
     {
      OFFSET 0.000000 -1.379900 5.669300
     }
    }
   }
  }
 }
}
MOTION
Frames: 7
Frame Time: 0.008333
0.000000 82.880600 0.000000 0.000000 -5.767877 0.000000 0.000000 11.653817 0.000000 0.000000 -5.885947 0.000000 0.000000 -0.000000 0.000000 0.000000 -0.000000 0.000000 0.000000 12.528835 0.000000 0.000000 0.711642 0.000000 0.000000 -0.000000 0.000000 0.000000 0.000000 -90.000000 0.000000 -2.309062 0.000000 0.000000 2.309062 0.000000 0.000000 -0.000000 0.000000 0.000000 -0.000000 90.000000 0.000000 -2.309062 0.000000 0.000000 2.309062 0.000000 0.000000 8.520406 0.000000 0.000000 1.905762 0.000000 -0.000000 -4.658285 0.000000 0.000000 -0.000000 0.000000 0.000000 8.520406 0.000000 0.000000 1.905762 0.000000 -0.000000 -4.658285 0.000000 0.000000 -0.000000 0.000000
25.469494 45.863648 -9.864024 162.860396 -15.695484 -0.289986 3.586021 8.518081 1.148381 0.199007 0.474507 0.055091 0.337445 0.825556 0.092778 3.333889 7.954294 1.105982 -0.839195 21.893463 0.153260 -0.935796 -2.360605 0.356898 4.645279 4.121147 -4.993974 3.046048 -17.932954 -2.538254 -37.369412 -70.950677 43.187975 -10.884394 -3.294246 -31.373384 -12.399283 0.156023 -5.649986 14.388875 -18.170419 8.417846 46.724386 -56.987772 -64.126864 6.231525 0.093551 19.063940 -15.487549 -71.655096 12.480918 -124.745603 83.377945 -125.565237 -11.739774 -10.182312 -1.274597 0.017148 -0.065165 0.007155 -1.039731 -71.766257 22.898725 112.246802 78.697872 110.730239 -12.477722 -11.194288 2.425208 0.024980 0.076471 0.013086
25.468219 45.863940 -9.865406 162.866927 -15.697726 -0.278153 3.573029 8.522266 1.129360 0.198696 0.474126 0.058733 0.336764 0.824848 0.092545 3.334288 7.953162 1.105555 -0.834090 21.894671 0.153852 -0.928137 -2.358534 0.355158 4.648037 4.124549 -4.995354 3.040357 -17.932385 -2.537204 -37.348608 -70.954159 43.169747 -10.873466 -3.297629 -31.368400 -12.394335 0.161794 -5.651147 14.404454 -18.167207 8.411793 46.717675 -56.993675 -64.130934 6.232310 0.107776 19.057141 -15.450207 -71.656945 12.445347 -124.689608 83.371197 -125.501330 -11.980463 -10.190856 -1.248378 -0.000905 -0.062477 0.007227 -1.016946 -71.764014 22.864153 112.252063 78.695667 110.732945 -12.477812 -11.192570 2.426645 0.022489 0.072086 0.010771
25.461191 45.864641 -9.869926 162.887698 -15.707680 -0.230874 3.541056 8.535903 1.070979 0.194995 0.475098 0.054222 0.339585 0.824174 0.095800 3.330059 7.950770 1.098872 -0.824228 21.895998 0.161746 -0.922859 -2.356325 0.358013 4.658742 4.126402 -4.985521 3.036431 -17.931575 -2.536687 -37.321837 -70.954891 43.141395 -10.871273 -3.296489 -31.362331 -12.385648 0.168182 -5.641537 14.415577 -18.154937 8.405595 46.677553 -56.983562 -64.108267 6.223760 0.092803 19.053344 -15.305472 -71.660607 12.297376 -124.522439 83.354882 -125.310624 -12.395115 -10.188092 -1.199108 -0.065353 -0.075234 -0.009501 -0.887370 -71.754159 22.702452 112.230810 78.688778 110.707928 -12.496529 -11.201116 2.420713 0.035677 0.083797 0.019446
25.458637 45.865549 -9.873495 162.900080 -15.719939 -0.210017 3.522280 8.550330 1.043781 0.193804 0.474990 0.052493 0.336567 0.824143 0.092076 3.335263 7.950551 1.102201 -0.822941 21.896109 0.163735 -0.922321 -2.356459 0.361031 4.659440 4.126415 -4.982163 3.036514 -17.929907 -2.538082 -37.302934 -70.955523 43.121252 -10.869621 -3.290401 -31.356586 -12.383033 0.169105 -5.637458 14.413809 -18.144905 8.403431 46.662386 -56.982904 -64.093291 6.221279 0.096096 19.053966 -15.247775 -71.652376 12.234283 -124.460814 83.348239 -125.238792 -12.629688 -10.201085 -1.169875 -0.104215 -0.070574 -0.023888 -0.829074 -71.739842 22.625761 112.196919 78.678146 110.673733 -12.508572 -11.195935 2.416779 0.049148 0.078643 0.022549
25.461330 45.865577 -9.871837 162.895436 -15.709987 -0.225739 3.526718 8.540565 1.058052 0.193243 0.475441 0.051869 0.336248 0.823913 0.091822 3.332467 7.950090 1.099887 -0.820465 21.895680 0.160929 -0.915842 -2.356149 0.360526 4.663310 4.125921 -4.978608 3.037801 -17.924644 -2.546175 -37.322320 -70.955471 43.141983 -10.868583 -3.285934 -31.354425 -12.375815 0.175302 -5.634201 14.405221 -18.139077 8.399891 46.668113 -56.990407 -64.091749 6.221261 0.115044 19.057088 -15.308537 -71.656129 12.292146 -124.528084 83.349603 -125.321796 -12.483681 -10.200090 -1.185203 -0.073426 -0.070883 -0.018569 -0.873332 -71.747495 22.676626 112.173603 78.678977 110.650609 -12.504535 -11.200155 2.418558 0.040544 0.083746 0.018837
25.469840 45.865373 -9.867227 162.870630 -15.693090 -0.276515 3.558091 8.520613 1.114096 0.191508 0.477550 0.050750 0.336075 0.823937 0.091520 3.328804 7.950787 1.095995 -0.812259 21.892227 0.165039 -0.912081 -2.356707 0.357836 4.666264 4.123842 -4.973933 3.045716 -17.916066 -2.557542 -37.311405 -70.957498 43.129112 -10.869540 -3.272969 -31.343409 -12.365373 0.178520 -5.629294 14.390216 -18.132039 8.396615 46.642924 -56.989042 -64.050733 6.221589 0.118776 19.052969 -15.477536 -71.655813 12.475205 -124.640697 83.359991 -125.459475 -12.169386 -10.205832 -1.225619 -0.013111 -0.057231 -0.002700 -1.018685 -71.762147 22.852971 112.142610 78.678055 110.626429 -12.485264 -11.185737 2.418887 0.025471 0.070611 0.008728
